<svg width="64" height="75" viewBox="0 0 64 75" fill="none" xmlns="http://www.w3.org/2000/svg">
<path fill-rule="evenodd" clip-rule="evenodd" d="M36.9537 61.2559C37.3943 61.2559 37.7526 61.1337 38.0286 60.8892C38.3046 60.6447 38.4426 60.3311 38.4426 59.9485C38.4426 59.5658 38.3046 59.2522 38.0286 59.0078C37.7526 58.7633 37.3943 58.6411 36.9537 58.6411C36.5131 58.6411 36.1548 58.7633 35.8788 59.0078C35.6028 59.2522 35.4648 59.5658 35.4648 59.9485C35.4648 60.3311 35.6028 60.6447 35.8788 60.8892C36.1548 61.1337 36.5131 61.2559 36.9537 61.2559ZM2.79473 67.7372V70.7986H0V59.1911H2.79473V64.3092L3.76611 62.8344L6.26627 59.1911H9.72186L5.80448 64.3252L9.72186 70.7986H6.40957L3.94133 66.4777L2.79473 67.7372ZM14.6527 70.0253C14.1591 70.6471 13.469 70.958 12.5826 70.958C11.7704 70.958 11.0803 70.7121 10.5124 70.2206C9.94445 69.729 9.66044 69.1111 9.66044 68.3671C9.66044 67.4317 10.0055 66.7248 10.6955 66.2464C11.3856 65.7681 12.3888 65.529 13.7052 65.529H14.5333V65.0746C14.5333 64.2826 14.1909 63.8867 13.5062 63.8867C12.8692 63.8867 12.5507 64.2003 12.5507 64.8274H9.86748C9.86748 63.993 10.2217 63.3154 10.9304 62.7945C11.639 62.2737 12.5428 62.0133 13.6415 62.0133C14.7403 62.0133 15.6082 62.2817 16.2451 62.8184C16.8821 63.3552 17.2085 64.0913 17.2245 65.0267V68.8453C17.2351 69.6373 17.3572 70.2431 17.5908 70.663V70.7986H14.9075C14.8119 70.6231 14.727 70.3654 14.6527 70.0253ZM13.2275 69.0447C12.9727 69.0447 12.763 68.9689 12.5985 68.8175C12.434 68.6661 12.3517 68.4681 12.3517 68.2235C12.3517 67.3838 12.8188 66.964 13.753 66.964H14.5333V68.3431C14.4378 68.5238 14.2798 68.6859 14.0596 68.8295C13.8392 68.9729 13.562 69.0447 13.2275 69.0447ZM24.5082 70.2166C23.8102 70.7108 22.9065 70.958 21.7971 70.958C21.0593 70.958 20.4011 70.8251 19.8225 70.5594C19.2439 70.2937 18.7927 69.9323 18.4689 69.4752C18.1451 69.0181 17.9832 68.5371 17.9832 68.0322H20.4913C20.5019 68.4308 20.6346 68.7218 20.8894 68.9052C21.1442 69.0885 21.4706 69.1802 21.8687 69.1802C22.235 69.1802 22.5097 69.1058 22.6928 68.957C22.876 68.8082 22.9676 68.6142 22.9676 68.375C22.9676 68.1465 22.8481 67.9631 22.6092 67.8249C22.3704 67.6868 21.9165 67.5432 21.2477 67.3945C20.5789 67.2457 20.0268 67.0503 19.5916 66.8085C19.1563 66.5667 18.8245 66.273 18.5963 65.9276C18.368 65.5821 18.2539 65.1862 18.2539 64.7397C18.2539 63.9478 18.5804 63.2955 19.2333 62.7825C19.8862 62.2697 20.7408 62.0133 21.7971 62.0133C22.9331 62.0133 23.846 62.271 24.5361 62.7865C25.2261 63.3021 25.5712 63.9798 25.5712 64.8195H22.8799C22.8799 64.1285 22.5163 63.7831 21.7891 63.7831C21.5078 63.7831 21.2715 63.8615 21.0805 64.0182C20.8894 64.175 20.7939 64.3703 20.7939 64.6042C20.7939 64.8433 20.9107 65.0373 21.1442 65.1862C21.3778 65.335 21.7506 65.4572 22.2629 65.5529C22.7751 65.6486 23.225 65.7628 23.6125 65.8957C24.9077 66.3421 25.5552 67.142 25.5552 68.2953C25.5552 69.0819 25.2062 69.7223 24.5082 70.2166ZM29.2599 74.115V70.089C29.7695 70.6683 30.4197 70.958 31.2107 70.958C32.2351 70.958 33.0486 70.558 33.6511 69.7582C34.2535 68.9583 34.5548 67.8887 34.5548 66.5494V66.4218C34.5548 65.0506 34.2602 63.9731 33.6709 63.1891C33.0818 62.4052 32.2564 62.0133 31.1947 62.0133C30.3561 62.0133 29.6792 62.3321 29.1644 62.9699L29.0848 62.1727H26.5767V74.115H29.2599ZM29.2599 68.1678C29.4935 68.6461 29.9234 68.8852 30.5498 68.8852C31.4044 68.8852 31.845 68.1465 31.8715 66.669V66.382C31.8715 64.8513 31.4256 64.086 30.5339 64.086C29.8969 64.086 29.4723 64.3146 29.2599 64.7716V68.1678ZM38.3152 62.1727V70.7985H35.624V62.1727H38.3152ZM51.6166 72.9192L53.3445 71.4523L51.4734 69.9695C52.0997 69.4858 52.5907 68.8441 52.9464 68.0442C53.302 67.2443 53.4798 66.3076 53.4798 65.234V64.6999C53.4745 63.5838 53.2582 62.5939 52.8309 61.7303C52.4036 60.8666 51.8051 60.2009 51.0354 59.7332C50.2657 59.2655 49.3899 59.0317 48.4079 59.0317C47.41 59.0317 46.5248 59.2682 45.7525 59.7412C44.9802 60.2142 44.3857 60.8839 43.969 61.7502C43.5523 62.6165 43.3439 63.621 43.3439 64.7636V65.3775C43.3599 66.483 43.5815 67.4609 44.0088 68.3112C44.4361 69.1616 45.0319 69.8153 45.7963 70.2724C46.5606 70.7294 47.4365 70.958 48.4238 70.958C48.6573 70.958 48.8909 70.942 49.1245 70.9101L51.6166 72.9192ZM46.7438 67.8608C47.1207 68.4694 47.6807 68.7736 48.4238 68.7736C49.1351 68.7736 49.6805 68.4734 50.06 67.8728C50.4395 67.2723 50.632 66.4086 50.6373 65.2819V64.7478C50.6373 63.5944 50.4449 62.7188 50.06 62.1209C49.6752 61.523 49.1245 61.224 48.4079 61.224C47.6701 61.224 47.1154 61.519 46.7438 62.109C46.3722 62.6988 46.1838 63.5625 46.1785 64.6999V65.234C46.1785 66.3767 46.3669 67.2523 46.7438 67.8608ZM57.4471 70.7986V66.7008H58.9598L61.0061 70.7986H64V70.679L61.5796 65.9993C62.2753 65.6699 62.7857 65.2393 63.1123 64.7079C63.439 64.1764 63.6019 63.5067 63.6019 62.6988C63.6019 61.5827 63.2145 60.7191 62.4399 60.1079C61.6644 59.4967 60.5897 59.1911 59.215 59.1911H54.6527V70.7986H57.4471ZM57.4471 64.5404H59.215C59.7461 64.5404 60.145 64.4009 60.4135 64.1219C60.6811 63.8429 60.815 63.4535 60.815 62.9539C60.815 62.4544 60.6803 62.0624 60.4093 61.7781C60.1384 61.4937 59.7403 61.3516 59.215 61.3516H57.4471V64.5404Z" fill="#212121"/>
<path d="M55.271 2.54455C55.2219 1.12856 54.0593 6.10352e-05 52.6363 6.10352e-05H46.4552L46.4389 0.000519282C46.2875 0.00898477 46.1675 0.13438 46.1675 0.287827V2.62649L46.1678 2.64283L46.1693 2.65891C46.1854 2.80258 46.3073 2.91426 46.4552 2.91426L52.3582 2.91421L52.3584 8.81743L52.3589 8.83375C52.3673 8.98509 52.4927 9.1052 52.6463 9.1052H54.9847L55.0012 9.10473C55.1524 9.09627 55.2726 8.97088 55.2726 8.81743V2.63638L55.2721 2.58756L55.271 2.54455Z" fill="#F14635"/>
<path d="M17.5446 6.10352e-05C17.6981 6.10352e-05 17.8236 0.120165 17.832 0.271495L17.8325 0.287824V2.62649C17.8325 2.77994 17.7123 2.90533 17.561 2.91381L17.5446 2.91425L11.6416 2.9142V8.81742C11.6416 8.96539 11.5298 9.08727 11.3861 9.10338L11.37 9.10472L11.3537 9.10519H9.01515C8.86165 9.10519 8.73622 8.98509 8.72775 8.83375L8.72729 8.81742V2.63638C8.72729 1.21343 9.85579 0.0507307 11.2718 0.00165545L11.3148 0.00051006L11.3636 6.10352e-05H17.5446Z" fill="#F14635"/>
<path d="M25.9399 11.0553V17.2122H19.7827V11.0553H25.9399Z" fill="#F14635"/>
<path fill-rule="evenodd" clip-rule="evenodd" d="M30.3589 6.19165C30.5985 6.19165 30.7938 6.38082 30.8036 6.61789L30.8041 6.63671V21.6322C30.8041 21.8718 30.6148 22.0671 30.3777 22.0769L30.3589 22.0773H15.3635C15.1239 22.0773 14.9286 21.8881 14.9187 21.651L14.9183 21.6322V8.92334C14.9183 7.42366 16.089 6.21602 17.5704 6.19202L17.6154 6.19165H30.3589ZM17.8325 9.10575H27.8897V19.163H17.8325V9.10575Z" fill="#F14635"/>
<path d="M30.3589 24.4692C30.5895 24.4692 30.7805 24.6449 30.8021 24.8748L30.8036 24.8941L30.8041 24.9142V27.3833H17.8325V37.4406H27.8897L27.8899 29.7758H30.8041V39.9097C30.8041 40.1404 30.6282 40.3313 30.3983 40.3529L30.379 40.3544L30.3589 40.3549H17.6154C16.1443 40.3549 14.966 39.1876 14.9197 37.7119L14.9187 37.6672L14.9183 37.6232V24.9142C14.9183 24.6837 15.0942 24.4927 15.3241 24.4711L15.3434 24.4696L15.3635 24.4692H30.3589Z" fill="#F14635"/>
<path d="M41.2701 37.4404V29.4806H38.3559V34.7871H33.1967V39.9094L33.1972 39.9284C33.207 40.1654 33.4023 40.3546 33.642 40.3546H36.1111V37.7014H41.1564V40.3546H46.3853L46.4304 40.3543C47.9117 40.3302 49.0825 39.1225 49.0825 37.6229V32.1339H43.515V35.0481L46.1682 35.0479V37.4404H41.2701Z" fill="#F14635"/>
<path d="M11.354 37.4401C11.5075 37.4401 11.6329 37.5603 11.6414 37.7115L11.6418 37.7278V43.631H17.3975C17.5455 43.631 17.6674 43.7427 17.6835 43.8863L17.6849 43.9024L17.6853 43.9187V46.2574C17.6853 46.4109 17.5652 46.5362 17.4138 46.5447L17.3975 46.5452H11.3639C9.9409 46.5452 8.77821 45.4166 8.72913 44.0007L8.72799 43.9578L8.72754 43.9089V37.7278C8.72754 37.5744 8.84768 37.449 8.99906 37.4406L9.01539 37.4401H11.354Z" fill="#F14635"/>
<path d="M54.9847 37.4401C55.1383 37.4401 55.2636 37.5603 55.2721 37.7115L55.2726 37.7278V43.9089C55.2726 45.3319 54.1441 46.4945 52.7281 46.5435L52.685 46.5447L52.6363 46.5452H46.4552C46.3018 46.5452 46.1763 46.4252 46.1678 46.2737L46.1675 46.2574V43.9187C46.1675 43.7653 46.2875 43.6399 46.4389 43.6314L46.4552 43.631H52.3582L52.3584 37.7278C52.3584 37.5799 52.4701 37.458 52.6137 37.4419L52.6298 37.4406L52.6463 37.4401H54.9847Z" fill="#F14635"/>
<path d="M25.9399 29.3329V35.4897H19.7827V29.3329H25.9399Z" fill="#F14635"/>
<path d="M41.1227 27.3833V24.4692H33.642L33.623 24.4696C33.386 24.4794 33.1967 24.6747 33.1967 24.9142V32.3951H36.1111V27.3833H41.1227Z" fill="#F14635"/>
<path d="M49.0821 24.8955C49.0721 24.6584 48.8768 24.4692 48.6372 24.4692H46.1682V27.1223L43.5149 27.1225V30.0366H46.4291V27.3833H49.0824V24.9142L49.0821 24.8955Z" fill="#F14635"/>
<path d="M49.0811 8.83449C49.0348 7.35891 47.8565 6.19165 46.3853 6.19165H33.642L33.6219 6.19213L33.6026 6.19353C33.3725 6.21517 33.1967 6.40609 33.1967 6.63671V21.6322L33.1972 21.6524L33.1987 21.6716C33.2203 21.9015 33.4113 22.0773 33.642 22.0773H36.1111V9.10577H46.1682V19.163L43.8097 19.1632V22.0773H48.6373L48.6574 22.0769L48.6767 22.0754C48.9066 22.0538 49.0825 21.8628 49.0825 21.6322V8.92334L49.0821 8.8793L49.0811 8.83449Z" fill="#F14635"/>
<path d="M41.4169 19.1624V22.0767H38.5027V19.1624H41.4169Z" fill="#F14635"/>
<path d="M44.224 17.2122V11.0553H38.0669V17.2122H44.224Z" fill="#F14635"/>
</svg>
